<?xml version="1.0" encoding="UTF-8" standalone="no"?>
<!-- Created with Inkscape (http://www.inkscape.org/) -->

<svg
   xmlns:dc="http://purl.org/dc/elements/1.1/"
   xmlns:cc="http://creativecommons.org/ns#"
   xmlns:rdf="http://www.w3.org/1999/02/22-rdf-syntax-ns#"
   xmlns:svg="http://www.w3.org/2000/svg"
   xmlns="http://www.w3.org/2000/svg"
   xmlns:sodipodi="http://sodipodi.sourceforge.net/DTD/sodipodi-0.dtd"
   xmlns:inkscape="http://www.inkscape.org/namespaces/inkscape"
   width="210mm"
   height="297mm"
   viewBox="0 0 210 297"
   version="1.1"
   id="svg8"
   inkscape:version="0.92.2 5c3e80d, 2017-08-06"
   sodipodi:docname="sensor.svg">
  <defs
     id="defs2">
    <marker
       inkscape:isstock="true"
       style="overflow:visible;"
       id="marker6082"
       refX="0.0"
       refY="0.0"
       orient="auto"
       inkscape:stockid="Arrow1Mend">
      <path
         transform="scale(0.4) rotate(180) translate(10,0)"
         style="fill-rule:evenodd;stroke:#000000;stroke-width:1pt;stroke-opacity:1;fill:#000000;fill-opacity:1"
         d="M 0.0,0.0 L 5.0,-5.0 L -12.5,0.0 L 5.0,5.0 L 0.0,0.0 z "
         id="path6080" />
    </marker>
    <marker
       inkscape:stockid="Arrow1Mend"
       orient="auto"
       refY="0.0"
       refX="0.0"
       id="marker6010"
       style="overflow:visible;"
       inkscape:isstock="true"
       inkscape:collect="always">
      <path
         id="path6008"
         d="M 0.0,0.0 L 5.0,-5.0 L -12.5,0.0 L 5.0,5.0 L 0.0,0.0 z "
         style="fill-rule:evenodd;stroke:#000000;stroke-width:1pt;stroke-opacity:1;fill:#000000;fill-opacity:1"
         transform="scale(0.4) rotate(180) translate(10,0)" />
    </marker>
    <marker
       inkscape:stockid="Arrow1Send"
       orient="auto"
       refY="0.0"
       refX="0.0"
       id="Arrow1Send"
       style="overflow:visible;"
       inkscape:isstock="true">
      <path
         id="path4569"
         d="M 0.0,0.0 L 5.0,-5.0 L -12.5,0.0 L 5.0,5.0 L 0.0,0.0 z "
         style="fill-rule:evenodd;stroke:#000000;stroke-width:1pt;stroke-opacity:1;fill:#000000;fill-opacity:1"
         transform="scale(0.2) rotate(180) translate(6,0)" />
    </marker>
    <marker
       inkscape:isstock="true"
       style="overflow:visible;"
       id="marker5830"
       refX="0.0"
       refY="0.0"
       orient="auto"
       inkscape:stockid="Arrow1Mend">
      <path
         transform="scale(0.4) rotate(180) translate(10,0)"
         style="fill-rule:evenodd;stroke:#000000;stroke-width:1pt;stroke-opacity:1;fill:#000000;fill-opacity:1"
         d="M 0.0,0.0 L 5.0,-5.0 L -12.5,0.0 L 5.0,5.0 L 0.0,0.0 z "
         id="path5828" />
    </marker>
    <marker
       inkscape:isstock="true"
       style="overflow:visible;"
       id="marker5534"
       refX="0.0"
       refY="0.0"
       orient="auto"
       inkscape:stockid="Arrow1Mend">
      <path
         transform="scale(0.4) rotate(180) translate(10,0)"
         style="fill-rule:evenodd;stroke:#000000;stroke-width:1pt;stroke-opacity:1;fill:#000000;fill-opacity:1"
         d="M 0.0,0.0 L 5.0,-5.0 L -12.5,0.0 L 5.0,5.0 L 0.0,0.0 z "
         id="path5532" />
    </marker>
    <marker
       inkscape:isstock="true"
       style="overflow:visible;"
       id="marker4952"
       refX="0.0"
       refY="0.0"
       orient="auto"
       inkscape:stockid="Arrow1Mend"
       inkscape:collect="always">
      <path
         transform="scale(0.4) rotate(180) translate(10,0)"
         style="fill-rule:evenodd;stroke:#000000;stroke-width:1pt;stroke-opacity:1;fill:#000000;fill-opacity:1"
         d="M 0.0,0.0 L 5.0,-5.0 L -12.5,0.0 L 5.0,5.0 L 0.0,0.0 z "
         id="path4950" />
    </marker>
    <marker
       inkscape:stockid="Arrow1Mend"
       orient="auto"
       refY="0.0"
       refX="0.0"
       id="Arrow1Mend"
       style="overflow:visible;"
       inkscape:isstock="true"
       inkscape:collect="always">
      <path
         id="path4563"
         d="M 0.0,0.0 L 5.0,-5.0 L -12.5,0.0 L 5.0,5.0 L 0.0,0.0 z "
         style="fill-rule:evenodd;stroke:#000000;stroke-width:1pt;stroke-opacity:1;fill:#000000;fill-opacity:1"
         transform="scale(0.4) rotate(180) translate(10,0)" />
    </marker>
    <marker
       inkscape:stockid="Arrow1Lend"
       orient="auto"
       refY="0.0"
       refX="0.0"
       id="Arrow1Lend"
       style="overflow:visible;"
       inkscape:isstock="true">
      <path
         id="path4557"
         d="M 0.0,0.0 L 5.0,-5.0 L -12.5,0.0 L 5.0,5.0 L 0.0,0.0 z "
         style="fill-rule:evenodd;stroke:#000000;stroke-width:1pt;stroke-opacity:1;fill:#000000;fill-opacity:1"
         transform="scale(0.8) rotate(180) translate(12.5,0)" />
    </marker>
  </defs>
  <sodipodi:namedview
     id="base"
     pagecolor="#ffffff"
     bordercolor="#666666"
     borderopacity="1.0"
     inkscape:pageopacity="0.0"
     inkscape:pageshadow="2"
     inkscape:zoom="3.1090126"
     inkscape:cx="141.61964"
     inkscape:cy="753.31215"
     inkscape:document-units="mm"
     inkscape:current-layer="layer1"
     showgrid="false"
     showguides="true"
     inkscape:object-nodes="false"
     inkscape:window-width="1917"
     inkscape:window-height="1248"
     inkscape:window-x="103"
     inkscape:window-y="0"
     inkscape:window-maximized="0" />
  <metadata
     id="metadata5">
    <rdf:RDF>
      <cc:Work
         rdf:about="">
        <dc:format>image/svg+xml</dc:format>
        <dc:type
           rdf:resource="http://purl.org/dc/dcmitype/StillImage" />
        <dc:title />
      </cc:Work>
    </rdf:RDF>
  </metadata>
  <g
     inkscape:label="Layer 1"
     inkscape:groupmode="layer"
     id="layer1">
    <rect
       style="opacity:1;fill:none;fill-opacity:1;stroke:#000000;stroke-width:0.32421318;stroke-miterlimit:4;stroke-dasharray:none;stroke-opacity:1"
       id="rect821"
       width="14.503656"
       height="3.8933263"
       x="28.646704"
       y="90.313881"
       inkscape:export-xdpi="96"
       inkscape:export-ydpi="96" />
    <path
       style="fill:#b3b3b3;stroke:none;stroke-width:0.18074316px;stroke-linecap:butt;stroke-linejoin:miter;stroke-opacity:1"
       d="m 29.439943,90.518874 c 0.540006,-0.354432 1.112023,-0.674303 1.620018,-1.063294 0.101599,-0.0778 0.135001,-0.354432 0,-0.354432 -0.150936,0 -0.270004,0.236288 -0.405004,0.177217 -0.09469,-0.04143 0,-0.404039 0,-0.531649 0,-0.05907 0.0675,0.177217 0,0.177217 -0.0675,0 0,-0.118145 0,-0.177217 0,-0.118143 -0.135003,-0.354432 0,-0.354432 0.0675,0 0.0675,0.177216 0,0.177216 -0.135003,0 -0.135003,-0.354432 0,-0.354432 0.0675,0 0.0675,0.177216 0,0.177216 -0.135003,0 -0.135003,-0.354431 0,-0.354431 0.09546,0 0.135,0.236288 0.202501,0.177215 0.09546,-0.08354 -0.120749,-0.301595 0,-0.354432 0.03201,-0.014 0.81001,0.380272 0.81001,-0.354432 V 86.44291 c 0,-0.118145 -0.135003,-0.354432 0,-0.354432 0.0675,0 0.0675,0.177214 0,0.177214 -0.09546,0 0.135002,-0.118142 0.202501,-0.177214 0.04773,-0.04177 -0.0675,-0.177218 0,-0.177218 0.05675,0 0.146365,0.403561 0.405005,0.177218 0.135002,-0.118145 -0.135,-0.59072 0,-0.708865 0.04773,-0.04177 0.172315,0.05283 0.202503,0 0.637466,-1.115732 -0.628855,0.373114 0.405005,-0.531647 0.04773,-0.04177 -0.202503,0.05907 -0.202503,0 0,-0.05907 0.142128,0.02642 0.202503,0 0.67444,-0.295112 0.617772,0 1.215013,0 0.0675,0 -0.172315,-0.05283 -0.202501,0 -0.06038,0.105671 0,0.236287 0,0.354432 0,0.09525 -0.02218,-1.240512 0.607506,-1.240512 0.09546,0 0.107041,0.177216 0.202502,0.177216 0.419984,0 0.810009,-0.746951 0.810009,0.354432 0,0.05907 -0.06403,-0.158536 0,-0.177216 h 0.607506 c 0,-0.05907 -0.06038,-0.150799 0,-0.177216 0.38832,-0.169915 1.171025,0 1.62002,0 1.044476,0 2.454331,-0.25519 3.442539,0.177216 0.06038,0.02642 -0.202502,-0.05907 -0.202502,0 0,0.03113 0.604305,1.414926 0,0.88608 -0.236588,-0.207044 1.108132,-0.270752 1.215013,-0.177217 0.263618,0.230701 -0.265729,1.118627 -0.405005,1.240511 -0.127262,0.111374 -1.244614,0 -1.417516,0 -0.0675,0 0.154773,-0.04176 0.202503,0 0.392354,0.343362 -0.39234,-0.332263 0,0.354433 0.03019,0.05283 0.154772,-0.04177 0.202502,0 0.03981,0.03483 0.283411,0.815272 0.202503,0.886079 -0.0675,0.05907 -0.540007,0.118145 -0.607508,0.177217 -0.135001,0.118143 0.223882,0.301596 0.405005,0.354432 0.06403,0.01868 0.202503,-0.05907 0.202503,0 0,0.132089 -0.270005,0.236288 -0.202503,0.354431 0.267044,0.467399 0.405005,-0.4338 0.405005,0.531649 0,0.541767 0.141687,-0.425205 -0.202502,0.177215 -0.06038,0.105672 0.09546,0.270892 0,0.354432 -0.04773,0.04177 -0.202503,-0.05907 -0.202503,0 0,0.08354 0.107043,0.177215 0.202503,0.177215 0.0675,0 0,-0.177215 0,-0.177215 0,-0.191343 0.957667,0.798141 1.148599,0.881683 0.746792,0.326769 -13.496749,-0.01064 -12.69123,0.181611"
       id="path827"
       inkscape:connector-curvature="0"
       sodipodi:nodetypes="ccscssssssssccsssscsccccscscsssscccscscscsccccscscsccssscc"
       inkscape:export-xdpi="96"
       inkscape:export-ydpi="96" />
    <path
       style="fill:none;stroke:#000000;stroke-width:0.26458332px;stroke-linecap:butt;stroke-linejoin:miter;stroke-opacity:1"
       d="m 33.61814,81.451104 h 6.891594"
       id="path835"
       inkscape:connector-curvature="0"
       inkscape:export-xdpi="96"
       inkscape:export-ydpi="96" />
    <path
       style="fill:none;stroke:#000000;stroke-width:0.26458332px;stroke-linecap:butt;stroke-linejoin:miter;stroke-opacity:1"
       d="M 40.49008,83.769448 H 39.099668"
       id="path837"
       inkscape:connector-curvature="0"
       inkscape:export-xdpi="96"
       inkscape:export-ydpi="96" />
    <path
       style="fill:none;stroke:#000000;stroke-width:0.26458332px;stroke-linecap:butt;stroke-linejoin:miter;stroke-opacity:1"
       d="M 35.129456,83.808756 H 33.61814"
       id="path841"
       inkscape:connector-curvature="0"
       inkscape:export-xdpi="96"
       inkscape:export-ydpi="96" />
    <path
       style="fill:none;stroke:#000000;stroke-width:0.26458332px;stroke-linecap:butt;stroke-linejoin:miter;stroke-opacity:1"
       d="m 33.742661,81.423682 v 2.253184"
       id="path4542"
       inkscape:connector-curvature="0"
       inkscape:export-xdpi="96"
       inkscape:export-ydpi="96" />
    <path
       style="fill:none;stroke:#000000;stroke-width:0.26458332px;stroke-linecap:butt;stroke-linejoin:miter;stroke-opacity:1"
       d="m 40.372937,81.388914 -0.01966,2.378138"
       id="path4544"
       inkscape:connector-curvature="0"
       inkscape:export-xdpi="96"
       inkscape:export-ydpi="96" />
    <path
       style="fill:none;stroke:#000000;stroke-width:0.27268574px;stroke-linecap:butt;stroke-linejoin:miter;stroke-opacity:1"
       d="m 35.010558,83.843537 0.537435,-0.700841 3.045469,10e-7 0.597151,0.659615"
       id="path4546"
       inkscape:connector-curvature="0"
       inkscape:export-xdpi="96"
       inkscape:export-ydpi="96" />
    <path
       style="fill:none;stroke:#000000;stroke-width:0.26458332;stroke-linecap:butt;stroke-linejoin:miter;stroke-miterlimit:4;stroke-dasharray:0.26458332, 0.26458332;stroke-dashoffset:0;stroke-opacity:1"
       d="m 35.007385,83.786708 h 4.225618"
       id="path4548"
       inkscape:connector-curvature="0"
       inkscape:export-xdpi="96"
       inkscape:export-ydpi="96" />
    <path
       style="opacity:1;fill:#808000;fill-opacity:1;stroke:#000000;stroke-width:0.01042888;stroke-miterlimit:4;stroke-dasharray:0.01042888, 0.01042888;stroke-dashoffset:0;stroke-opacity:1"
       d="M 33.879238,82.629954 V 81.59228 h 3.175593 3.175595 l -8e-6,0.294616 c -5e-6,0.162039 -0.0031,0.621953 -0.0069,1.02203 l -0.0069,0.727416 H 39.72417 39.231788 l -0.285879,-0.315476 -0.28588,-0.315473 -1.590863,-0.0026 -1.590865,-0.0026 -0.25463,0.333444 -0.25463,0.333444 -0.544909,2.64e-4 -0.54491,2.65e-4 z"
       id="path4550"
       inkscape:connector-curvature="0"
       inkscape:export-xdpi="96"
       inkscape:export-ydpi="96" />
    <path
       style="fill:none;stroke:#000000;stroke-width:0.26458333;stroke-linecap:butt;stroke-linejoin:miter;stroke-opacity:1;stroke-miterlimit:4;stroke-dasharray:none;marker-end:url(#Arrow1Mend)"
       d="m 41.179765,82.522051 h 6.977682"
       id="path4552"
       inkscape:connector-curvature="0"
       inkscape:export-xdpi="96"
       inkscape:export-ydpi="96" />
    <text
       xml:space="preserve"
       style="font-style:normal;font-weight:normal;font-size:2.72095656px;line-height:1.25;font-family:sans-serif;letter-spacing:0px;word-spacing:0px;fill:#000000;fill-opacity:1;stroke:none;stroke-width:0.17005979"
       x="31.207533"
       y="93.067184"
       id="text4886"
       inkscape:export-xdpi="96"
       inkscape:export-ydpi="96"><tspan
         sodipodi:role="line"
         id="tspan4884"
         x="31.207533"
         y="93.067184"
         style="stroke-width:0.17005979">Source</tspan></text>
    <text
       id="text4932"
       y="80.761589"
       x="28.745472"
       style="font-style:normal;font-weight:normal;font-size:2.72095656px;line-height:1.25;font-family:sans-serif;letter-spacing:0px;word-spacing:0px;fill:#000000;fill-opacity:1;stroke:none;stroke-width:0.17005979"
       xml:space="preserve"
       inkscape:export-xdpi="96"
       inkscape:export-ydpi="96"><tspan
         style="stroke-width:0.17005979"
         y="80.761589"
         x="28.745472"
         id="tspan4930"
         sodipodi:role="line">Sensor</tspan></text>
    <path
       style="fill:none;stroke:#000000;stroke-width:0.16754699px;stroke-linecap:butt;stroke-linejoin:miter;stroke-opacity:1"
       d="M 50.043163,82.308517 49.981553,86.944 60.622945,86.99203"
       id="path4934"
       inkscape:connector-curvature="0"
       sodipodi:nodetypes="ccc"
       inkscape:export-xdpi="96"
       inkscape:export-ydpi="96" />
    <path
       inkscape:connector-curvature="0"
       id="path4948"
       d="m 51.530077,88.660027 h 6.977682"
       style="fill:#000000;fill-opacity:1;stroke:#000000;stroke-width:0.26458332;stroke-linecap:butt;stroke-linejoin:miter;stroke-miterlimit:4;stroke-dasharray:none;stroke-opacity:1;marker-end:url(#marker4952)"
       inkscape:export-xdpi="96"
       inkscape:export-ydpi="96" />
    <path
       style="fill:none;stroke:#000000;stroke-width:0.26458332px;stroke-linecap:butt;stroke-linejoin:miter;stroke-opacity:1"
       d="m 50.548037,84.818596 c 0.145725,-0.291449 0.05692,-0.177273 0.240705,-0.361058 0.02005,-0.02006 -0.08024,0.08024 -0.06018,0.06018 0.21867,-0.21867 0.120354,-0.142822 0.120354,0.06018 0,0.182621 0.101915,0.379495 0.180528,0.300882 0.02005,-0.02006 -0.08024,-0.04012 -0.06018,-0.06018 0.02837,-0.02837 0.0981,0.03338 0.120353,0 0.03338,-0.05007 -0.01461,-0.12215 0,-0.180528 0.0069,-0.02752 0.06018,-0.03181 0.06018,-0.06018 0,-0.02837 -0.06018,-0.03181 -0.06018,-0.06018 0,-0.02005 0.04224,0.009 0.06018,0 0.02537,-0.0127 0.04012,-0.08023 0.06017,-0.06018 0.03883,0.03883 -0.153537,0.08717 -0.06017,0.18053 0.04485,0.04485 0.135676,0.01532 0.180528,0.06017 0.06953,0.06953 -0.274783,0.120354 0.06018,0.120354 0.02837,0 -0.07286,-0.0348 -0.06018,-0.06018 0.04012,-0.06018 0.08024,-0.120351 0.120351,-0.180528 0.02005,0.02006 0.04012,0.08024 0.06018,0.06018 0,-0.09534 -0.01794,-0.162589 0.06018,-0.240705 0.01418,-0.01418 0.02006,0.06018 0,0.06018 -0.02837,0 0.04012,-0.08024 0.06018,-0.06018 0.05673,0.05674 -0.01947,0.162865 0,0.240705 0.0069,0.02752 0.06018,0.03181 0.06018,0.06017 0,0.02006 -0.06018,-0.02005 -0.06018,0 0,0.02837 0.06018,0.03181 0.06018,0.06018 0,0.02006 -0.08024,0 -0.06018,0 0.04012,0 0.102409,0.03588 0.120351,0 0.02005,-0.04012 -0.09189,-0.08864 -0.06018,-0.120351 0.03172,-0.03172 0.0755,0.06017 0.120351,0.06017 0.02837,0 -0.06018,-0.03181 -0.06018,-0.06017 0,-0.02006 0.05121,-0.01794 0.06018,0 0.05383,0.107646 -0.02919,0.244298 0,0.361056 0.0049,0.01947 0.06018,-0.02006 0.06018,0 0,0.02837 -0.05121,0.03327 -0.06018,0.06018 -0.04377,0.131299 0.06871,0.146174 0.120354,0.120353 0.137829,-0.06892 0.158192,-0.251044 0.240705,-0.361058 0.119681,-0.159576 0.240704,-0.111482 0.240704,-0.240705 0,-0.06085 -0.119602,0.361056 -0.06018,0.361056 0.05673,0 0.120353,-0.06362 0.120353,-0.120351 0,-0.04485 -0.08024,-0.08024 -0.06018,-0.120354 0.03234,-0.06468 0.135348,-0.06387 0.180528,-0.120351 0.07392,-0.0924 0.0132,-0.187124 0.120354,-0.240704 0.05941,-0.02971 0,0.197739 0,0.361055 0,0.02006 -0.02005,-0.06017 0,-0.06017 0.05683,0 -0.113668,0.280821 0,-0.06018 0.01794,-0.05382 0.120351,-0.06362 0.120351,-0.120353 0,-0.09958 -0.209145,0.435543 0.06018,0.300881 0.02537,-0.0127 0.06018,-0.03181 0.06018,-0.06018 0,-0.04485 -0.04599,-0.0778 -0.06018,-0.120351 -2.65e-4,-0.0011 0.06018,-0.188896 0.06018,-0.120353 0,0.191352 -0.02818,0.421235 0.06018,0.421235 0.05451,0 -0.09592,-0.144783 0.06018,-0.300882 0.03171,-0.03171 0.0755,0.06018 0.120353,0.06018 0.02837,0 -0.08555,-0.04749 -0.06018,-0.06018 0.188208,-0.0941 0.16007,0.06018 0.361058,0.06018 0.02005,0 -0.06018,0.02006 -0.06018,0 0,-0.02006 0.04599,0.01418 0.06018,0 0.01685,-0.01685 0.103505,-0.163684 0.120351,-0.18053 0.07092,-0.07092 0.09708,-0.185071 0.18053,-0.240705 0.0236,-0.01574 0.03181,0.06018 0.06018,0.06018 0.04012,0 -0.02837,-0.09199 0,-0.120354 0.09942,-0.09942 0.03614,0.337026 0.06018,0.361058 0.06316,0.06316 0,-0.362497 0,-0.240704 0,0.295513 0.02315,0.129638 0.120354,0.421232 0.0063,0.01902 -0.08024,0 -0.06018,0 0.04012,0 0.102413,-0.03588 0.120351,0 0.02006,0.04012 -0.09189,0.08864 -0.06017,0.120354 0.180549,0.180549 0.06017,-0.23032 0.06017,-0.240705 0,-0.01204 0.236694,-0.180528 0.06018,-0.180528 -0.06018,0 0,0.120351 0,0.180528 0,0.04012 -0.03588,0.102413 0,0.120351 0.145259,0.07263 0.07299,-0.06147 0.180531,-0.240704 0.0146,-0.02432 0.06017,-0.03181 0.06017,-0.06018 0,-0.02837 -0.08023,-0.04012 -0.06017,-0.06018 0.248681,-0.248682 0,0.221157 0,0.240704 0,0.05565 0.221506,0.180528 0.06017,0.180528 -0.04012,0 0,-0.08024 0,-0.120351 0,-0.06018 -0.05382,-0.153617 0,-0.18053 0.03588,-0.01794 0.08024,0 0.120353,0 0.02006,0 -0.04599,-0.01418 -0.06018,0 -0.04255,0.04255 -0.06018,0.18053 0,0.18053 0.04485,0 0.100293,-0.02006 0.120353,-0.06018 0.02006,-0.04012 -0.07436,-0.0778 -0.06018,-0.120353 0.08024,-0.240705 0.02006,-0.02006 0.180528,-0.180528 0.02837,-0.02837 -0.02837,-0.09199 0,-0.120354 0.04485,-0.04485 0.04479,0.118994 0.06018,0.180531 0.01376,0.05504 0.120354,0.06362 0.120354,0.120351 0,0.02837 -0.08024,0.08024 -0.06018,0.06018 0.0894,-0.0894 0.171633,-0.336457 0.240705,-0.06018 0.01087,0.04351 -0.06018,0.0755 -0.06018,0.120353 0,0.05674 0.120353,0.06362 0.120353,0.120351 0,0.02006 -0.06018,0.02006 -0.06018,0 0,-0.04012 0.120351,0.04012 0.120351,0 0,-0.02837 -0.07286,-0.0348 -0.06018,-0.06017 0.02006,-0.04012 0.100293,-0.02006 0.120351,-0.06018 0.0127,-0.02537 -0.08023,-0.04012 -0.06018,-0.06018 0.04485,-0.04485 0.127751,-0.025 0.18053,-0.06018 0.03732,-0.02487 0.01532,-0.120351 0.06017,-0.120351 0.0075,0 -0.03507,0.205634 0.06018,0.300881 0.01418,0.01418 0.06018,-0.02006 0.06018,0 0,0.06234 -0.200422,0 0.06018,0 0.02005,0 -0.05121,-0.01794 -0.06018,0 -0.01794,0.03588 0,0.08023 0,0.120351 0,0.02006 0,-0.08024 0,-0.06018 0,0.04012 -0.02837,0.09199 0,0.120354 0.02837,0.02837 0.102412,0.03588 0.120354,0 -0.140412,-0.280823 -0.04012,0.02005 0.06017,-0.180528 0.0127,-0.02537 -0.08024,-0.04012 -0.06017,-0.06018 0.02837,-0.02837 0.102409,0.03588 0.120351,0 0.02005,-0.04012 -0.09189,-0.08864 -0.06018,-0.120353 0.144563,-0.144561 0.06018,0.242099 0.06018,0.300881 0,0.06018 0.06018,0.180528 0,0.180528 -0.09513,0 0.02521,-0.06017 0.120353,-0.06017 0.02006,0 -0.05121,0.01794 -0.06018,0 -0.02691,-0.05382 -0.02691,-0.126706 0,-0.180531 0.163578,-0.327157 0.185917,-0.300879 0.421232,-0.300879 0.02006,0 -0.0512,-0.01794 -0.06017,0 -0.03588,0.07176 -0.04451,0.173945 0,0.240705 0.228587,0.342882 0.300879,-0.75176 0.300879,0.120351 0,0.100293 -0.03172,0.205735 0,0.300882 0.0063,0.01886 0.159692,0.101851 0.18053,0.06018 0.02837,-0.05674 -0.08854,-0.123794 -0.06018,-0.180531 0.05454,-0.109074 0.120214,-0.270722 0.180528,-0.300879 0.05382,-0.02691 -0.0146,0.122148 0,0.180528 0.02175,0.08703 0.120354,0.151 0.120354,0.240705 0,0.52392 -0.01778,0.07796 -0.120354,0.180528 -0.01418,0.01418 -0.01418,0.07436 0,0.06018 0.144995,-0.144994 -0.06503,-0.722114 0.180531,-0.722114 0.08024,0 0,0.32094 0,0.240705 0,-0.30393 -0.02837,0.116911 0.180528,-0.300882 0.04539,-0.09077 -0.116483,-0.04857 -0.120354,-0.06018 -0.06946,-0.20837 7.94e-4,-0.181235 0.06018,-0.240705 0.01418,-0.01418 -0.009,-0.07812 0,-0.06018 0.08604,0.172088 0.06018,0.356582 0.06018,0.541586 0,0.02006 -0.02006,-0.06017 0,-0.06017 0.01156,0 -0.05531,0.115485 0.180527,-0.120354 0.01418,-0.01418 -0.0512,0.01794 -0.06018,0 -0.01794,-0.03588 0,-0.08023 0,-0.120351 0,-0.02005 -0.02006,0.06018 0,0.06018 0.02837,0 0.03181,-0.06018 0.06018,-0.06018 0.05435,0 0.111435,0.386686 0.180531,0.421233 0.03588,0.01794 0.08023,0 0.120351,0 0.02005,0 -0.06018,0.02005 -0.06018,0 0,-0.02005 0.05383,0.01902 0.06018,0 0.01902,-0.05709 -0.03338,-0.130458 0,-0.180528 0.02225,-0.03338 0.08447,0.01794 0.120354,0 0.01794,-0.009 -0.01114,-0.04349 0,-0.06018 -0.148492,-0.182184 0.163681,-0.103507 0.180527,-0.120353 0.01418,-0.01418 -0.02005,-0.06018 0,-0.06018 0.02657,0 -0.03919,0.165116 0,0.361056 0.01114,0.05563 0.16047,0.08023 0.120354,0.120354 -0.02005,0.02005 -0.03181,-0.06018 -0.06018,-0.06018 -0.02005,0 -0.01794,0.0512 0,0.06018 0.206396,0.103198 -0.0021,-0.118139 0.180528,-0.300882 0.0075,-0.0075 0.0016,0.479748 0.120354,0.361056 0.04255,-0.04255 -0.03338,-0.130458 0,-0.180528 0.02487,-0.03732 0.09547,-0.02286 0.120351,-0.06018 0.01566,-0.02349 -0.03944,-0.180528 0.06018,-0.180528 0.02837,0 0.0348,0.07286 0.06018,0.06018 0.04012,-0.02005 0.02005,-0.100293 0.06017,-0.120353 0.130632,-0.06531 0.01434,0.315232 0.06018,0.361058 0.02837,0.02837 0.09199,0.02837 0.120353,0 0.02006,-0.02005 -0.04012,-0.04012 -0.06018,-0.06018 0,-0.04012 -0.02837,-0.09199 0,-0.120351 0.02006,-0.02006 0.04749,0.08555 0.06018,0.06017 0.02691,-0.05382 0,-0.120351 0,-0.180528 0,-0.02005 -0.02006,0.06018 0,0.06018 0.112615,0 0.06018,-0.141967 0.06018,0.180528 0,0.02006 -0.01418,-0.04599 0,-0.06018 0.01418,-0.01418 0.04599,0.01418 0.06017,0 0.04485,-0.04485 0.01532,-0.135675 0.06018,-0.180528 0.01418,-0.01418 0.05121,0.01794 0.06018,0 0.01794,-0.03588 -0.02837,-0.09198 0,-0.120351 0.04485,-0.04485 0.06018,0.117097 0.06018,0.180528 0,0.227349 0,0.06531 0,0.240705 0,0.02005 -0.01114,-0.04349 0,-0.06018 0.03147,-0.04721 0.08888,-0.07315 0.120351,-0.120351 0.282358,-0.423537 0.06018,-0.04765 0.06018,-0.300881 0,-4.8e-5 0,0.240657 0,0.240704 0,0.04012 -0.04012,0.120351 0,0.120351 0.128106,0 -0.0013,0.0029 0.120353,-0.240704 0.16047,-0.32094 -0.04012,0.160469 0.120351,0 0.02837,-0.02837 0,-0.16047 0,-0.120351 0,0.06018 0,0.120351 0,0.180527 0.02006,-0.02005 0.04749,-0.08555 0.06018,-0.06018 0.02691,0.05382 -0.05709,0.161499 0,0.18053 0.188455,0.06282 0.722114,-0.3332 0.722114,-0.18053 0,0.703929 0.03082,0.118898 0.06018,0.06018 0.009,-0.01794 0.04012,0 0.06018,0 0,-0.04012 0,-0.08023 0,-0.120351 0,-0.06018 0,0.120351 0,0.180528 0,0.240705 0,0.48141 0,0.722114 0,0.04824 0.180528,-0.571682 0.180528,-0.421232"
       id="path5146"
       inkscape:connector-curvature="0"
       inkscape:export-xdpi="96"
       inkscape:export-ydpi="96" />
    <text
       id="text5240"
       y="93.247711"
       x="51.968334"
       style="font-style:normal;font-weight:normal;font-size:2.72095656px;line-height:1.25;font-family:sans-serif;letter-spacing:0px;word-spacing:0px;fill:#000000;fill-opacity:1;stroke:none;stroke-width:0.17005979"
       xml:space="preserve"
       inkscape:export-xdpi="96"
       inkscape:export-ydpi="96"><tspan
         style="stroke-width:0.17005979"
         y="93.247711"
         x="51.968334"
         id="tspan5238"
         sodipodi:role="line">Time</tspan></text>
    <text
       xml:space="preserve"
       style="font-style:normal;font-weight:normal;font-size:2.72095656px;line-height:1.25;font-family:sans-serif;letter-spacing:0px;word-spacing:0px;fill:#000000;fill-opacity:1;stroke:none;stroke-width:0.17005979"
       x="64.972298"
       y="80.325752"
       id="text5808"
       inkscape:export-xdpi="96"
       inkscape:export-ydpi="96"><tspan
         sodipodi:role="line"
         id="tspan5806"
         x="64.972298"
         y="80.325752"
         style="stroke-width:0.17005979">Proformance</tspan></text>
    <text
       xml:space="preserve"
       style="font-style:normal;font-weight:normal;font-size:4.23333311px;line-height:1.25;font-family:sans-serif;letter-spacing:0px;word-spacing:0px;fill:#000000;fill-opacity:1;stroke:none;stroke-width:0.26458332"
       x="70.165489"
       y="80.064667"
       id="text5812"><tspan
         sodipodi:role="line"
         id="tspan5810"
         x="70.165489"
         y="83.810173"
         style="stroke-width:0.26458332" /></text>
    <path
       style="fill:none;stroke:#000000;stroke-width:0.20150106px;stroke-linecap:butt;stroke-linejoin:miter;stroke-opacity:1;marker-end:url(#marker6010)"
       d="m 62.243229,84.816788 c 0.245153,-1.855473 1.710773,-2.977852 2.980348,-2.971074 2.643857,-0.08738 0,0 2.643857,-0.08738"
       id="path5954"
       inkscape:connector-curvature="0"
       sodipodi:nodetypes="ccc"
       inkscape:export-xdpi="96"
       inkscape:export-ydpi="96" />
    <path
       sodipodi:nodetypes="ccc"
       inkscape:connector-curvature="0"
       id="path6078"
       d="m 62.339369,86.639723 c 0.245153,1.855473 1.710773,2.977852 2.980348,2.971074 2.643857,0.08738 0,0 2.643857,0.08738"
       style="fill:none;stroke:#000000;stroke-width:0.20150106px;stroke-linecap:butt;stroke-linejoin:miter;stroke-opacity:1;marker-end:url(#marker6082)"
       inkscape:export-xdpi="96"
       inkscape:export-ydpi="96" />
    <path
       sodipodi:nodetypes="ccc"
       inkscape:connector-curvature="0"
       id="path6252"
       d="m 69.341263,80.943316 -0.0518,4.642423 8.946392,0.0481"
       style="fill:none;stroke:#000000;stroke-width:0.15373977px;stroke-linecap:butt;stroke-linejoin:miter;stroke-opacity:1"
       inkscape:export-xdpi="96"
       inkscape:export-ydpi="96" />
    <path
       style="fill:#008000;stroke:#1186ee;stroke-width:0.26458332px;stroke-linecap:butt;stroke-linejoin:miter;stroke-opacity:1"
       d="m 69.273065,85.521413 8.425103,-3.914696"
       id="path6256"
       inkscape:connector-curvature="0"
       inkscape:export-xdpi="96"
       inkscape:export-ydpi="96" />
    <path
       style="fill:none;stroke:#000000;stroke-width:0.15373977px;stroke-linecap:butt;stroke-linejoin:miter;stroke-opacity:1"
       d="m 69.341263,87.666378 -0.0518,4.642423 8.946392,0.0481"
       id="path6258"
       inkscape:connector-curvature="0"
       sodipodi:nodetypes="ccc"
       inkscape:export-xdpi="96"
       inkscape:export-ydpi="96" />
    <path
       style="fill:none;stroke:#f17208;stroke-width:0.26458333;stroke-linecap:butt;stroke-linejoin:miter;stroke-opacity:1;stroke-miterlimit:4;stroke-dasharray:none"
       d="m 69.866098,92.06899 c 2.286181,-0.03303 2.474402,-1.135083 3.316603,-3.312036 0.267334,-0.937803 0.690258,-0.964053 0.884428,0.02193 0.884965,2.355443 1.000736,3.20887 3.040219,3.290103"
       id="path6270"
       inkscape:connector-curvature="0"
       sodipodi:nodetypes="cccc"
       inkscape:export-xdpi="96"
       inkscape:export-ydpi="96" />
  </g>
</svg>
